REM SINGLE-DENSITY AREA
FILE "Space Channel 5 Part 2 (Japan) (En) (v1.0) (BrAzE) (Track 1).bin" BINARY
  TRACK 01 MODE1/2352
    INDEX 01 00:00:00
FILE "Space Channel 5 Part 2 (Japan) (En) (v1.0) (BrAzE) (Track 2).bin" BINARY
  TRACK 02 AUDIO
    INDEX 00 00:00:00
    INDEX 01 00:02:00
REM HIGH-DENSITY AREA
FILE "Space Channel 5 Part 2 (Japan) (En) (v1.0) (BrAzE) (Track 3).bin" BINARY
  TRACK 03 MODE1/2352
    INDEX 01 00:00:00
